<svg version="1.1" x="0px" y="0px" width="100%" height="100%">
				<defs>
						<filter id="smokeOutline">
								<feMorphology in="SourceAlpha" operator="dilate" radius="6" result="morphed" />
								<feColorMatrix in="morphed" result="recolored" type="matrix" values="1 0 0 0 0.4, 0 1 0 0 0.4, 0 0 1 0 0.4, 0 0 0 1 0" />
								<feComposite in="SourceGraphic" />
						</filter>
						<mask id="jetMask">
								<rect x="0" y="0" fill="#FFFFFF" width="1000" height="445" />
						</mask>
						<symbol id="NASA_logo" viewBox="0 -36.1 36.1 36.1">
								<path fill="#1668B2" stroke="#EF3D43" stroke-width="2.7646" stroke-miterlimit="10" d="M34.7-18c0-9.2-7.5-16.7-16.7-16.7
			S1.4-27.2,1.4-18S8.8-1.4,18-1.4S34.7-8.8,34.7-18z" />
								<g>
										<g>
												<path fill="#FFFFFF" d="M18-29.2L18-29.2c-3.2,0-5.5,1.7-5,3.7c0.9,5,1.8,10,2.7,14.9c0.4,1.9,0.8,5.4,2.3,5.4l0,0
					c1.5,0,2-3.4,2.3-5.4c0.9-5,1.8-10,2.7-14.9C23.5-27.5,21.2-29.2,18-29.2z" />
										</g>
										<path fill="#FFFFFF" d="M11.9-28.4L11.9-28.4c-0.8,0-1.5,0.7-1.5,1.5v6.3c0,0.8,0.7,1.5,1.5,1.5h0c0.8,0,1.5-0.7,1.5-1.5v-6.3
				C13.3-27.7,12.7-28.4,11.9-28.4z" />
										<path fill="#FFFFFF" d="M24.1-28.4L24.1-28.4c-0.8,0-1.4,0.6-1.4,1.4v6.4c0,0.8,0.6,1.4,1.4,1.4h0c0.8,0,1.4-0.6,1.4-1.4V-27
				C25.5-27.7,24.9-28.4,24.1-28.4z" />
								</g>
								<g>
										<path fill="#FFFFFF" d="M8.5-17c0-0.7-0.6-1.3-1.3-1.3S5.9-17.7,5.9-17s0.6,1.3,1.3,1.3S8.5-16.2,8.5-17z" />
										<path fill="#FFFFFF" d="M7.4-17c0-1.2-0.1-2.3-0.1-2.3s-0.1,1-0.1,2.3s0.1,2.3,0.1,2.3S7.4-15.7,7.4-17z" />
										<path fill="#FFFFFF" d="M9.7-17c0,0.1-1.1,0.2-2.5,0.2S4.8-16.9,4.8-17s1.1-0.2,2.5-0.2S9.7-17.1,9.7-17z" />
								</g>
								<g>
										<path fill="#FFFFFF" d="M29.3-13.4c0-0.7-0.6-1.3-1.3-1.3s-1.3,0.6-1.3,1.3s0.6,1.3,1.3,1.3S29.3-12.6,29.3-13.4z" />
										<path fill="#FFFFFF" d="M28.2-13.4c0-1.2-0.1-2.3-0.1-2.3s-0.1,1-0.1,2.3s0.1,2.3,0.1,2.3S28.2-12.1,28.2-13.4z" />
										<path fill="#FFFFFF" d="M30.5-13.4c0,0.1-1.1,0.2-2.5,0.2s-2.5-0.1-2.5-0.2c0-0.1,1.1-0.2,2.5-0.2S30.5-13.5,30.5-13.4z" />
								</g>
						</symbol>
						<symbol id="spaceShuttleSymbol" x="0px" y="0px" width="603px" height="603px" viewBox="0 0 603 603">

								<rect x="33.8" y="162" fill="#F2F2F2" width="48.3" height="19.3" />
								<path fill="none" stroke="#AAAAAA" stroke-width="6" stroke-linecap="round" stroke-linejoin="round" stroke-miterlimit="10" d="
	M103.2,162" />
								<path fill="none" stroke="#AAAAAA" stroke-width="6" stroke-linecap="round" stroke-linejoin="round" stroke-miterlimit="10" d="
	M82.9,162" />
								<polyline fill="#F2F2F2" stroke="#AAAAAA" stroke-width="6" stroke-linecap="round" stroke-linejoin="round" stroke-miterlimit="10" points="
	82.9,163.4 82.9,184.8 103.2,184.8 103.2,163.4 " />
								<path fill="#F2F2F2" stroke="#AAAAAA" stroke-width="6" stroke-linecap="round" stroke-linejoin="round" stroke-miterlimit="10" d="
	M68.2,201.9" />
								<path fill="#F2F2F2" stroke="#AAAAAA" stroke-width="6" stroke-linecap="round" stroke-linejoin="round" stroke-miterlimit="10" d="
	M49.3,201.9" />
								<polyline fill="#F2F2F2" stroke="#AAAAAA" stroke-width="6" stroke-linecap="round" stroke-linejoin="round" stroke-miterlimit="10" points="
	49.3,201.9 39.2,218.3 78.2,218.3 68.2,201.9 " />
								<polygon fill="#F2F2F2" stroke="#AAAAAA" stroke-width="6" stroke-linecap="round" stroke-linejoin="round" stroke-miterlimit="10" points="
	99.5,182.3 86.4,182.3 82.8,205.2 103.1,205.2 " />
								<rect x="35.9" y="181.2" fill="#F2F2F2" stroke="#AAAAAA" stroke-width="6" stroke-linecap="round" stroke-linejoin="round" stroke-miterlimit="10" width="44.1" height="19.8" />
								<path fill="#F2F2F2" stroke="#AAAAAA" stroke-width="6" stroke-linecap="round" stroke-linejoin="round" stroke-miterlimit="10" d="
	M102,121.9c0,0,0-58,0-64.2c0-4.5-1.6-10.7-9-18.2c0,0-9,6.8-9,18.2c0,0,0,45.8,0,48.8C88.5,110.6,102,121.9,102,121.9z" />
								<path fill="#F2F2F2" stroke="#AAAAAA" stroke-width="6" stroke-linecap="round" stroke-linejoin="round" stroke-miterlimit="10" d="
	M84,106.5c0,0,0-0.1,0-48.8S58,3,58,3S32,8.9,32,57.7s0,48.8,0,48.8" />
								<path fill="#F2F2F2" stroke="#AAAAAA" stroke-width="6" stroke-linecap="round" stroke-linejoin="round" stroke-miterlimit="10" d="
	M58,162.5H3v-25.7v-0.6c0-6.9,5.6-10.7,9-13c15-10,30.8-22.3,30.8-45.6c0-19.1-0.5-25.9,4.6-37.8C50.1,33.7,58,28.1,58,28.1
	s7.9,5.6,10.6,11.7c5.1,11.8,4.6,18.7,4.6,37.8c0,23.3,15.8,35.6,30.8,45.6c3.5,2.3,9,6.1,9,13v0.6v25.7H58" />
								<path fill="#F2F2F2" stroke="#AAAAAA" stroke-width="6" stroke-linecap="round" stroke-linejoin="round" stroke-miterlimit="10" d="
	M32,58.7c0-11.4-8.9-19.2-8.9-19.2C15.6,47,14,53.2,14,57.7c0,6.2,0,64.1,0,64.1s13.6-10.6,18-15.2C32,101.3,32,58.7,32,58.7z" />
								<polyline fill="#F2F2F2" stroke="#AAAAAA" stroke-width="6" stroke-linecap="round" stroke-linejoin="round" stroke-miterlimit="10" points="
	12.7,163.4 12.7,184.8 33,184.8 33,163.4 " />
								<polygon fill="#F2F2F2" stroke="#AAAAAA" stroke-width="6" stroke-linecap="round" stroke-linejoin="round" stroke-miterlimit="10" points="
	12.8,205.2 33.2,205.2 29.6,182.3 16.4,182.3 " />
								<path fill="none" stroke="#AAAAAA" stroke-width="6" stroke-linecap="round" stroke-linejoin="round" stroke-miterlimit="10" d="
	M64.7,54.7c0-4.1-2.4-6.5-6.5-6.5s-6.5,2.4-6.5,6.5" />
								<line fill="none" stroke="#AAAAAA" stroke-width="6" stroke-linecap="round" stroke-linejoin="round" stroke-miterlimit="10" x1="58" y1="162.5" x2="58" y2="118.5" />
								<path fill="none" stroke="#AAAAAA" stroke-width="6" stroke-linecap="round" stroke-linejoin="round" stroke-miterlimit="10" d="
	M73,77.5v70c10,4.8,9.9,14,9.9,14" />
								<path fill="none" stroke="#AAAAAA" stroke-width="6" stroke-linecap="round" stroke-linejoin="round" stroke-miterlimit="10" d="
	M33.1,161.5c0,0-0.1-9.2,9.9-14v-70" />
								<text x="83" y="142">S V G</text>
						</symbol>

				</defs>

				<svg class="launcherSVG" x="348" y="210px" width="600" height="600" viewBox="0 0 600 600" enable-background="new 0 0 600 600" xml:space="preserve">

						<g class="launcherBodyGroup">
								<path class="launcherBody" fill="#1d1d1d" stroke="#AAAAAA" stroke-width="4" stroke-linecap="round" stroke-linejoin="round" stroke-miterlimit="10" d="
	M92.8,217.6H62.7V115.9h30.2V217.6z M77.2,217.6l0-101.7 M89.2,67.4h-23l-3.6,48.5h30.2L89.2,67.4z M92.8,217.6H62.7l-5,19.7h40.2
	L92.8,217.6z M77.2,47.1L66.3,67.4h23L77.2,47.1z M77.2,8.4v39" />
								<path id="launcherRivets" fill="#AAAAAA" d="M75.7,109.4c0,1.4-1.1,2.5-2.5,2.5c-1.4,0-2.5-1.1-2.5-2.5s1.1-2.5,2.5-2.5
	C74.6,106.9,75.7,108,75.7,109.4z M82.2,106.9c-1.4,0-2.5,1.1-2.5,2.5s1.1,2.5,2.5,2.5c1.4,0,2.5-1.1,2.5-2.5S83.6,106.9,82.2,106.9
	z" />
								<path class="launcherArm" fill="none" stroke="#AAAAAA" stroke-width="4" stroke-linecap="round" stroke-linejoin="round" stroke-miterlimit="10" d="
	M3.4,82.4h61 M3.4,74.4v16" />
						</g>
				</svg>
				<svg class="speedLineGroup" width="600" height="250" viewBox="0 0 600 250">

						<g mask="url(#jetMask)">
								<line fill="none" stroke="#AAAAAA" stroke-width="6" stroke-linecap="round" stroke-linejoin="round" stroke-miterlimit="10" x1="300" y1="360" x2="300" y2="50" />

								<line fill="none" stroke="#AAAAAA" stroke-width="6" stroke-linecap="round" stroke-linejoin="round" stroke-miterlimit="10" x1="291" y1="360" x2="291" y2="120" />

								<line fill="none" stroke="#AAAAAA" stroke-width="6" stroke-linecap="round" stroke-linejoin="round" stroke-miterlimit="10" x1="262" y1="360" x2="262" y2="50" />

								<line fill="none" stroke="#AAAAAA" stroke-width="6" stroke-linecap="round" stroke-linejoin="round" stroke-miterlimit="10" x1="332" y1="360" x2="332" y2="50" />
						</g>
				</svg>
				<svg x="275" y="420" class="flameSVG">
						<g id="flameGroup" mask="url(#jetMask)" opacity="0">
								<path id="flame0" fill="#D64231" d="M21.5,0.7h-6.2c-4.8,13.8-1.7,26.6,9.5,38.3c11.3-11.7,14.5-24.5,9.7-38.3h-6H21.5z" />
								<path id="flame1" fill="#EDBD52" d="M18.8,0.7c-0.9,15.9,1.2,25.7,6.2,29.3c5-3.6,7-13.4,6.1-29.3H18.8z" />
								<path id="flame2" fill="#FFFFFF" d="M21.5,0.7c-0.5,9,0.7,14.6,3.5,16.6c2.8-2.1,4-7.6,3.5-16.6H21.5z" />
						</g>
				</svg>

				<use class="spaceShuttle" opacity="0" xlink:href="#spaceShuttleSymbol" x="240" y="200" />
				<line id="ground" fill="none" stroke="#AAAAAA" stroke-width="6" stroke-linecap="round" stroke-linejoin="round" stroke-miterlimit="10" x1="100" y1="448" x2="504" y2="448" />
				<g class="jetSmokeGroup" mask="url(#jetMask)" filter="url(#smokeOutline)" fill="#ffffff">
						<g class="jetSmokeScaleGroup">
								<circle class="jetBubbleR" cx="425" cy="449.7" r="33" />
								<circle class="jetBubbleX" cx="281" cy="425" r="50" />
								<circle class="jetBubbleR" cx="398" cy="425" r="27" />
								<circle class="jetBubbleL" cx="201" cy="437" r="38" />
								<circle class="jetBubbleL" cx="225" cy="403.5" r="26" />

								<circle class="jetBubbleL" cx="251" cy="395" r="20" />
								<circle class="jetBubbleR" cx="350" cy="420" r="48" />

						</g>
				</g>

				</g>

		</svg>