<svg xmlns="http://www.w3.org/2000/svg" viewBox="0 0 140 120" x="0px" y="0px"><title>8</title><g data-name="1"><path d="M110.53182,106.91309a1.53242,1.53242,0,0,0-2.11771-.08414l-1.78593,1.53438a11.66765,11.66765,0,0,1-13.40684,1.25581L68.83448,95.56576A10.16466,10.16466,0,0,0,65.39862,84.0194L73.6822,69.99829l12.45032,6.12009a7.40153,7.40153,0,0,0,10.54189-7.98821l2.9079,1.43019a1.48956,1.48956,0,0,0,2.03945-.78038,1.52751,1.52751,0,0,0-.77406-1.91825l-8.13513-3.99912c-.01744-.00872-.03357-.01919-.05167-.02769l-8.57458-4.21448-.99292-.48785-.00261-.002-2.071-1.01777,2.61709-2.61623a7.38758,7.38758,0,0,0,1.77068-2.83509,16.97,16.97,0,0,0,8.23083,2.00392,17.09386,17.09386,0,1,0-8.0111-32.289c.00589-.12055.00959-.24087.00959-.36338a7.1639,7.1639,0,1,0-7.16336,7.16358c.02857,0,.05842-.002.087-.002a16.96383,16.96383,0,0,0-2.1445,6.907H49.7629a11.66968,11.66968,0,0,0-7.69437,2.74331c-.03445.02965-.06889.06235-.10333.092L35.412,34.69634,36.51955,32.481a1.52328,1.52328,0,0,0-.47628-1.94637,1.48968,1.48968,0,0,0-2.16568.56893l-1.139,2.27858-4.36011-2.14256a1.53208,1.53208,0,0,0-2.02965.61123,1.48938,1.48938,0,0,0,.659,2.03465l4.398,2.16174-1.04916,2.09657a1.52974,1.52974,0,0,0,.55477,2.00413,1.48974,1.48974,0,0,0,2.08437-.62016l1.08358-2.16632,5.85786,2.87913A12.35119,12.35119,0,0,0,38.20979,44.234a12.09494,12.09494,0,0,0,.59989,7.45721,11.66462,11.66462,0,0,0,5.66538,5.88467l2.18572,1.08665a1.48962,1.48962,0,0,0,1.32773-2.667L45.8028,54.908a8.665,8.665,0,0,1-4.69275-9.99191,9.42767,9.42767,0,0,1,1.53526-3.34495L64.76145,52.44127l-1.52,1.5189a7.40022,7.40022,0,0,0,1.96861,11.87442l5.79007,2.84555-5.50865,9.32533-10.6838-5.79923,5.04479-8.521a1.49454,1.49454,0,0,0-.1321-1.70943,1.52283,1.52283,0,0,0-.5127-.397l-5.0923-2.53362a1.48943,1.48943,0,1,0-1.32774,2.66659l3.68523,1.8339L45.48345,82.10922,19.31151,67.0263A1.48983,1.48983,0,0,0,17.824,69.6081l73.91,42.59174a14.64541,14.64541,0,0,0,16.83506-1.57646l1.83368-1.57514a1.48945,1.48945,0,0,0,.129-2.13515ZM91.37241,65.52375a4.42026,4.42026,0,0,1-3.92566,7.92107l-1.65581-.814,3.89994-7.93459Zm2.06778-14.83681a13.98368,13.98368,0,0,1-7.68652-2.27858,7.38873,7.38873,0,0,0-5.27519-6.24522A13.82215,13.82215,0,0,1,79.404,38.06157h21.02862l-.11379,2.38451a1.48949,1.48949,0,0,0,1.41646,1.55924c.024.00109.049.00174.0728.00174a1.48945,1.48945,0,0,0,1.48665-1.4182l.12056-2.52729h4.05949A14.13333,14.13333,0,0,1,93.44019,50.68694Zm0-28.22861a14.1086,14.1086,0,0,1,11.775,6.34505H102.2356a1.48981,1.48981,0,0,0,0,2.97962H106.716a13.956,13.956,0,0,1,.7588,3.29874H79.40513a14.00953,14.00953,0,0,1,.75858-3.29874h15.12a1.48981,1.48981,0,1,0,0-2.97962H81.66539a14.11177,14.11177,0,0,1,11.7748-6.34505ZM78.47238,25.19794a4.18441,4.18441,0,1,1,4.18484-4.18484,4.18935,4.18935,0,0,1-4.18484,4.18484Zm-33.518,14.18831a8.80853,8.80853,0,0,1,4.80848-1.32468H76.41a16.80923,16.80923,0,0,0,.80457,3.90277,7.3565,7.3565,0,0,0-4.04315,2.06691l-6.18418,6.184ZM66.52428,63.161a4.42056,4.42056,0,0,1-1.17535-7.09383l9.92868-9.92848a4.42074,4.42074,0,1,1,6.252,6.25176l-4.08913,4.08914A1.48974,1.48974,0,0,0,77.83652,58.87l4.70693,2.313,4.47278,2.19988-3.89972,7.93372Zm-.3309,30.88277L48.06524,83.59652l5.22441-8.824L63.97519,80.572,62.109,83.73145a1.48981,1.48981,0,0,0,.54321,2.05166l.14823.08436a7.204,7.204,0,0,1,3.39291,8.17633Zm0,0"/></g></svg>